<svg xmlns="http://www.w3.org/2000/svg" width="144" height="144" viewBox="0 0 144 144">
  <rect width="144" height="144" rx="18" fill="#0d1f1b"/>
  <circle cx="72" cy="61" r="43" fill="#10a37f"/>
  <path d="M72 28c11 0 20 9 20 20 8 1 15 8 15 18 0 10-7 18-16 19-3 9-11 15-21 15-9 0-18-6-21-15-9-2-16-10-16-20 0-9 7-17 15-18 1-11 10-19 21-19 5 0 10 2 14 5"
        fill="none" stroke="#fff" stroke-width="7" stroke-linecap="round" stroke-linejoin="round"/>
  <path d="M49 48l23 14 23-14M49 76l23-14 23 14M72 62v27"
        fill="none" stroke="#fff" stroke-width="6" stroke-linecap="round" stroke-linejoin="round"/>
  <text x="72" y="128" text-anchor="middle" fill="#fff" font-family="sans-serif" font-size="22" font-weight="700">ChatGPT</text>
</svg>
